<svg width="45" height="45" viewBox="0 0 45 45" fill="none" xmlns="http://www.w3.org/2000/svg">
<path fill-rule="evenodd" clip-rule="evenodd" d="M41.25 22.5C41.25 12.1613 32.8387 3.75 22.5 3.75C12.1613 3.75 3.75 12.1613 3.75 22.5C3.75 32.8387 12.1613 41.25 22.5 41.25C32.8387 41.25 41.25 32.8387 41.25 22.5ZM0 22.5C0 10.0744 10.0744 0 22.5 0C34.9256 0 45 10.0744 45 22.5C45 34.9256 34.9256 45 22.5 45C10.0744 45 0 34.9256 0 22.5ZM29.3212 11.25L35.2725 16.5225C33.3206 19.59 29.9569 22.4213 26.1 24.0056L23.1956 21.5813C24.0525 17.4938 26.6719 13.7287 29.3212 11.25Z" fill="white"/>
<path d="M10.5506 30.3731C17.6925 30.9637 15.1369 23.3794 21.7444 23.3063L24.6056 25.695C25.32 34.32 14.7731 36.2437 10.5506 30.3731Z" fill="white"/>
</svg>
