<svg width="48" height="48" viewBox="0 0 48 48" fill="none" xmlns="http://www.w3.org/2000/svg">
<path d="M42.286 19.334C40.82 16.55 38.458 13.234 35.052 9.828C29.098 3.872 24.096 2 21.482 2C20.654 2 20.066 2.188 19.762 2.492L17.04 5.212C13.242 4.74 10.2 5.424 8.452 7.178C6.7 8.928 6.124 11.496 6.868 14.224C7.852 17.836 11.478 22.322 18.678 24.974C18.754 25.62 18.992 26.25 19.488 26.744C20.664 27.92 22.558 27.916 23.73 26.744C24.902 25.572 24.906 23.678 23.734 22.506C22.558 21.332 20.66 21.33 19.488 22.504L19.148 23.016C15.086 21.486 12.358 19.36 10.684 17.216L18.442 9.466C19.434 14.926 31.306 26.818 36.798 27.822L22.568 42.036C22.1 42.342 16.972 41.404 10.256 34.686C3.47 27.9 3.906 24.144 4.202 23.69L7.92 19.978C7.042 19.26 6.07 17.772 5.638 16.6L1.37 20.862C0.48 21.754 0 22.99 0 24.502C0 27.77 2.242 32.332 7.426 37.514C12.954 43.042 18.586 46 22.29 46C23.586 46 24.65 45.61 25.384 44.876L41.556 28.72C43.376 30.468 40 35.796 40 38.016C40 40.224 41.792 42.014 44 42.014C46.21 42.014 48 40.222 48 38.014C48 31.646 45.15 24.394 42.286 19.334V19.334ZM9.868 8.592C10.922 7.532 12.81 7.01 15.18 7.07L8.762 13.482C8.29 11.526 8.664 9.792 9.868 8.592V8.592ZM28.452 16.75L28.392 16.692C25.808 14.108 20.786 7.98 22.2 6.566C23.63 5.136 29.176 9.608 32.324 12.758C34.048 14.482 36.5 17.252 38.198 19.674C34.764 17.526 31.216 16.736 28.452 16.75V16.75Z" fill="black"/>
</svg>
