<svg width="45" height="45" viewBox="0 0 45 45" fill="none" xmlns="http://www.w3.org/2000/svg">
<path d="M22.5 3.75C32.8387 3.75 41.25 12.1613 41.25 22.5C41.25 32.8387 32.8387 41.25 22.5 41.25C12.1613 41.25 3.75 32.8387 3.75 22.5C3.75 12.1613 12.1613 3.75 22.5 3.75ZM22.5 0C10.0744 0 0 10.0744 0 22.5C0 34.9256 10.0744 45 22.5 45C34.9256 45 45 34.9256 45 22.5C45 10.0744 34.9256 0 22.5 0Z" fill="white"/>
<path d="M32.3438 21.7186V32.656H25.7813V26.0935H19.2188V32.656H12.6563V21.7186H9.375L22.5 8.59363L35.625 21.7186H32.3438ZM31.2501 15.2578V9.68739H27.9688V11.9766L31.2501 15.2578Z" fill="white"/>
</svg>
