<svg width="24" height="24" viewBox="0 0 24 24" fill="none" xmlns="http://www.w3.org/2000/svg">
<path d="M12 2C17.514 2 22 6.486 22 12C22 17.514 17.514 22 12 22C6.486 22 2 17.514 2 12C2 6.486 6.486 2 12 2ZM12 0C5.373 0 0 5.373 0 12C0 18.627 5.373 24 12 24C18.627 24 24 18.627 24 12C24 5.373 18.627 0 12 0Z" fill="black"/>
<path d="M17.25 11.5833V17.4166H13.75V13.9166H10.25V17.4166H6.75V11.5833H5L12 4.58331L19 11.5833H17.25ZM16.6667 8.13756V5.16665H14.9167V6.38756L16.6667 8.13756Z" fill="black"/>
</svg>
