<svg width="43" height="43" viewBox="0 0 43 43" fill="none" xmlns="http://www.w3.org/2000/svg">
<path d="M21.5 3.58333C31.3792 3.58333 39.4167 11.6207 39.4167 21.5C39.4167 31.3792 31.3792 39.4167 21.5 39.4167C11.6207 39.4167 3.58333 31.3792 3.58333 21.5C3.58333 11.6207 11.6207 3.58333 21.5 3.58333ZM21.5 0C9.62663 0 0 9.62663 0 21.5C0 33.3734 9.62663 43 21.5 43C33.3734 43 43 33.3734 43 21.5C43 9.62663 33.3734 0 21.5 0ZM21.4982 10.3021C22.7345 10.3021 23.7396 11.3054 23.7396 12.5417C23.7396 13.7779 22.7345 14.7812 21.4982 14.7812C20.262 14.7812 19.2604 13.7779 19.2604 12.5417C19.2604 11.3054 20.262 10.3021 21.4982 10.3021ZM25.0833 32.25H17.9167V30.4583C18.7838 30.1376 19.7083 30.0982 19.7083 29.1415V21.1381C19.7083 20.1813 18.7838 20.0308 17.9167 19.7101V17.9185H23.2917V29.1433C23.2917 30.1018 24.218 30.143 25.0833 30.4601V32.25Z" fill="black"/>
</svg>
