<svg width="167" height="100" viewBox="0 0 167 100" fill="none" xmlns="http://www.w3.org/2000/svg">
<path d="M52.1343 11C42.1681 11 34.0878 19.0595 34.0878 29C34.0878 38.9405 42.1681 47 52.1343 47C62.1004 47 70.1808 38.9405 70.1808 29C70.1808 19.0595 62.1004 11 52.1343 11ZM50.2545 35.777L43.487 29.2985L45.5864 27.146L50.2154 31.5515L59.3965 22.2245L61.5335 24.338L50.2545 35.777Z" fill="#01C915"/>
<path d="M19.632 46H11.856C11.248 46 10.8 45.872 10.512 45.616C10.256 45.328 10.128 44.88 10.128 44.272V20.704H3.072C2.464 20.704 2.016 20.576 1.728 20.32C1.472 20.032 1.344 19.584 1.344 18.976V13.168C1.344 12.56 1.472 12.128 1.728 11.872C2.016 11.584 2.464 11.44 3.072 11.44H28.416C29.024 11.44 29.456 11.584 29.712 11.872C30 12.128 30.144 12.56 30.144 13.168V18.976C30.144 19.584 30 20.032 29.712 20.32C29.456 20.576 29.024 20.704 28.416 20.704H21.36V44.272C21.36 44.88 21.216 45.328 20.928 45.616C20.672 45.872 20.24 46 19.632 46Z" fill="black"/>
<path d="M95.407 46H79.231C78.623 46 78.175 45.872 77.887 45.616C77.631 45.328 77.503 44.88 77.503 44.272V13.168C77.503 12.56 77.631 12.128 77.887 11.872C78.175 11.584 78.623 11.44 79.231 11.44H95.407C99.407 11.44 102.367 12.24 104.287 13.84C106.239 15.44 107.215 17.904 107.215 21.232V36.208C107.215 39.536 106.239 42 104.287 43.6C102.367 45.2 99.407 46 95.407 46ZM88.399 20.608V36.928H94.111C94.879 36.928 95.439 36.736 95.791 36.352C96.175 35.968 96.367 35.376 96.367 34.576V22.912C96.367 22.112 96.175 21.536 95.791 21.184C95.439 20.8 94.879 20.608 94.111 20.608H88.399ZM142.596 36.928C142.596 38.4 142.372 39.744 141.924 40.96C141.508 42.144 140.74 43.168 139.62 44.032C138.532 44.864 137.012 45.52 135.06 46C133.14 46.48 130.692 46.72 127.716 46.72C124.74 46.72 122.276 46.48 120.324 46C118.372 45.52 116.836 44.864 115.716 44.032C114.628 43.168 113.86 42.144 113.412 40.96C112.996 39.744 112.788 38.4 112.788 36.928V20.56C112.788 19.088 112.996 17.76 113.412 16.576C113.86 15.36 114.628 14.32 115.716 13.456C116.836 12.592 118.372 11.92 120.324 11.44C122.276 10.96 124.74 10.72 127.716 10.72C130.692 10.72 133.14 10.96 135.06 11.44C137.012 11.92 138.532 12.592 139.62 13.456C140.74 14.32 141.508 15.36 141.924 16.576C142.372 17.76 142.596 19.088 142.596 20.56V36.928ZM123.684 35.2C123.684 35.84 123.924 36.384 124.404 36.832C124.884 37.248 125.988 37.456 127.716 37.456C129.444 37.456 130.548 37.248 131.028 36.832C131.508 36.384 131.748 35.84 131.748 35.2V22.288C131.748 21.68 131.508 21.168 131.028 20.752C130.548 20.304 129.444 20.08 127.716 20.08C125.988 20.08 124.884 20.304 124.404 20.752C123.924 21.168 123.684 21.68 123.684 22.288V35.2Z" fill="black"/>
<path d="M12.6169 88H5.41689C4.80889 88 4.36089 87.872 4.07289 87.616C3.81689 87.328 3.68889 86.88 3.68889 86.272V55.168C3.68889 54.56 3.81689 54.128 4.07289 53.872C4.36089 53.584 4.80889 53.44 5.41689 53.44H10.4089C11.0169 53.44 11.5289 53.536 11.9449 53.728C12.3929 53.92 12.8249 54.256 13.2409 54.736L22.5529 65.392V55.168C22.5529 54.56 22.6809 54.128 22.9369 53.872C23.2249 53.584 23.6729 53.44 24.2809 53.44H31.4809C32.0889 53.44 32.5209 53.584 32.7769 53.872C33.0649 54.128 33.2089 54.56 33.2089 55.168V86.272C33.2089 86.88 33.0649 87.328 32.7769 87.616C32.5209 87.872 32.0889 88 31.4809 88H24.2809C23.6729 88 23.2249 87.872 22.9369 87.616C22.6809 87.328 22.5529 86.88 22.5529 86.272V80.368L14.3449 70.432V86.272C14.3449 86.88 14.2009 87.328 13.9129 87.616C13.6569 87.872 13.2249 88 12.6169 88ZM69.1095 78.928C69.1095 80.4 68.8855 81.744 68.4375 82.96C68.0215 84.144 67.2535 85.168 66.1335 86.032C65.0455 86.864 63.5255 87.52 61.5735 88C59.6535 88.48 57.2055 88.72 54.2295 88.72C51.2535 88.72 48.7895 88.48 46.8375 88C44.8855 87.52 43.3495 86.864 42.2295 86.032C41.1415 85.168 40.3735 84.144 39.9255 82.96C39.5095 81.744 39.3015 80.4 39.3015 78.928V62.56C39.3015 61.088 39.5095 59.76 39.9255 58.576C40.3735 57.36 41.1415 56.32 42.2295 55.456C43.3495 54.592 44.8855 53.92 46.8375 53.44C48.7895 52.96 51.2535 52.72 54.2295 52.72C57.2055 52.72 59.6535 52.96 61.5735 53.44C63.5255 53.92 65.0455 54.592 66.1335 55.456C67.2535 56.32 68.0215 57.36 68.4375 58.576C68.8855 59.76 69.1095 61.088 69.1095 62.56V78.928ZM50.1975 77.2C50.1975 77.84 50.4375 78.384 50.9175 78.832C51.3975 79.248 52.5015 79.456 54.2295 79.456C55.9575 79.456 57.0615 79.248 57.5415 78.832C58.0215 78.384 58.2615 77.84 58.2615 77.2V64.288C58.2615 63.68 58.0215 63.168 57.5415 62.752C57.0615 62.304 55.9575 62.08 54.2295 62.08C52.5015 62.08 51.3975 62.304 50.9175 62.752C50.4375 63.168 50.1975 63.68 50.1975 64.288V77.2ZM91.3058 88H83.5298C82.9218 88 82.4738 87.872 82.1858 87.616C81.9298 87.328 81.8018 86.88 81.8018 86.272V62.704H74.7458C74.1378 62.704 73.6898 62.576 73.4018 62.32C73.1458 62.032 73.0178 61.584 73.0178 60.976V55.168C73.0178 54.56 73.1458 54.128 73.4018 53.872C73.6898 53.584 74.1378 53.44 74.7458 53.44H100.09C100.698 53.44 101.13 53.584 101.386 53.872C101.674 54.128 101.818 54.56 101.818 55.168V60.976C101.818 61.584 101.674 62.032 101.386 62.32C101.13 62.576 100.698 62.704 100.09 62.704H93.0338V86.272C93.0338 86.88 92.8898 87.328 92.6018 87.616C92.3458 87.872 91.9138 88 91.3058 88ZM130.486 88H108.214C107.606 88 107.158 87.872 106.87 87.616C106.614 87.328 106.486 86.88 106.486 86.272V55.168C106.486 54.56 106.614 54.128 106.87 53.872C107.158 53.584 107.606 53.44 108.214 53.44H130.486C131.094 53.44 131.526 53.584 131.782 53.872C132.07 54.128 132.214 54.56 132.214 55.168V60.784C132.214 61.392 132.07 61.84 131.782 62.128C131.526 62.384 131.094 62.512 130.486 62.512H117.238V66.208H126.598C127.206 66.208 127.638 66.352 127.894 66.64C128.182 66.896 128.326 67.328 128.326 67.936V73.072C128.326 73.68 128.182 74.128 127.894 74.416C127.638 74.672 127.206 74.8 126.598 74.8H117.238V78.928H130.486C131.094 78.928 131.526 79.072 131.782 79.36C132.07 79.616 132.214 80.048 132.214 80.656V86.272C132.214 86.88 132.07 87.328 131.782 87.616C131.526 87.872 131.094 88 130.486 88ZM153.924 88H138.756C138.148 88 137.7 87.872 137.412 87.616C137.156 87.328 137.028 86.88 137.028 86.272V80.656C137.028 80.048 137.156 79.616 137.412 79.36C137.7 79.072 138.148 78.928 138.756 78.928H151.668C152.084 78.928 152.388 78.8 152.58 78.544C152.804 78.256 152.916 77.92 152.916 77.536C152.916 76.992 152.804 76.592 152.58 76.336C152.388 76.08 152.084 75.936 151.668 75.904L144.468 74.896C142.228 74.576 140.42 73.84 139.044 72.688C137.7 71.536 137.028 69.616 137.028 66.928V61.888C137.028 59.168 137.908 57.088 139.668 55.648C141.428 54.176 143.86 53.44 146.964 53.44H160.404C161.012 53.44 161.444 53.584 161.7 53.872C161.988 54.128 162.132 54.56 162.132 55.168V60.88C162.132 61.488 161.988 61.936 161.7 62.224C161.444 62.48 161.012 62.608 160.404 62.608H149.22C148.804 62.608 148.484 62.752 148.26 63.04C148.036 63.296 147.924 63.632 147.924 64.048C147.924 64.464 148.036 64.816 148.26 65.104C148.484 65.392 148.804 65.552 149.22 65.584L156.372 66.544C158.612 66.864 160.42 67.6 161.796 68.752C163.172 69.904 163.86 71.824 163.86 74.512V79.552C163.86 82.272 162.964 84.368 161.172 85.84C159.412 87.28 156.996 88 153.924 88Z" fill="black"/>
</svg>
