<svg width="44" height="44" viewBox="0 0 44 44" fill="none" xmlns="http://www.w3.org/2000/svg">
<path d="M23.8334 31.1667H31.1667V33H23.8334V31.1667ZM23.8334 29.3333H31.1667V27.5H23.8334V29.3333ZM40.3334 3.66667V44H3.66669V3.66667H9.16669C11.4217 3.66667 13.1652 1.67933 14.6667 0H29.3334C30.8367 1.67933 32.5802 3.66667 34.8334 3.66667H40.3334ZM20.1667 5.5C20.1667 6.512 20.988 7.33333 22 7.33333C23.0139 7.33333 23.8334 6.512 23.8334 5.5C23.8334 4.488 23.0139 3.66667 22 3.66667C20.988 3.66667 20.1667 4.488 20.1667 5.5ZM36.6667 7.33333H29.3334L25.6667 11H18.5222L14.6667 7.33333H7.33335V40.3333H36.6667V7.33333ZM23.8334 23.8333H31.1667V22H23.8334V23.8333ZM23.8334 20.1667H31.1667V18.3333H23.8334V20.1667ZM11.9167 20.3078L12.6244 19.657C13.4475 20.0567 13.9719 20.3592 14.8995 21.0228C16.6449 19.041 17.7962 18.04 19.9375 16.7053L20.1667 17.2333C18.4012 18.7752 17.1069 20.4912 15.2424 23.8333C14.0947 22.4803 13.3284 21.6187 11.9167 20.3078V20.3078ZM12.0964 29.4745L12.804 28.8237C13.6272 29.2233 14.1515 29.5258 15.0792 30.1895C16.8245 28.2077 17.9759 27.2067 20.1172 25.872L20.3464 26.4018C18.5809 27.9437 17.2865 29.6597 15.422 33.0018C14.2725 31.647 13.5062 30.7853 12.0964 29.4745V29.4745Z" fill="#01C915"/>
</svg>
