<svg width="41" height="41" viewBox="0 0 41 41" fill="none" xmlns="http://www.w3.org/2000/svg">
<path d="M20.5 3.41667C29.9198 3.41667 37.5833 11.0803 37.5833 20.5C37.5833 29.9198 29.9198 37.5833 20.5 37.5833C11.0803 37.5833 3.41667 29.9198 3.41667 20.5C3.41667 11.0803 11.0803 3.41667 20.5 3.41667ZM20.5 0C9.17888 0 0 9.17888 0 20.5C0 31.8211 9.17888 41 20.5 41C31.8211 41 41 31.8211 41 20.5C41 9.17888 31.8211 0 20.5 0ZM31.1771 15.1888L28.7495 12.7817L18.3202 23.4042L13.0619 18.3868L10.6771 20.84L18.3646 28.2183L31.1771 15.1888Z" fill="white"/>
</svg>
