<svg width="41" height="41" viewBox="0 0 41 41" fill="none" xmlns="http://www.w3.org/2000/svg">
<path d="M20.5 3.41667C29.9198 3.41667 37.5833 11.0803 37.5833 20.5C37.5833 29.9198 29.9198 37.5833 20.5 37.5833C11.0803 37.5833 3.41667 29.9198 3.41667 20.5C3.41667 11.0803 11.0803 3.41667 20.5 3.41667ZM20.5 0C9.17888 0 0 9.17888 0 20.5C0 31.8211 9.17888 41 20.5 41C31.8211 41 41 31.8211 41 20.5C41 9.17888 31.8211 0 20.5 0ZM30.75 28.2524L22.9053 20.4829L30.6714 12.6468L28.2524 10.25L20.488 18.0895L12.6502 10.3286L10.25 12.7288L18.0964 20.5051L10.3286 28.3498L12.7288 30.75L20.5102 22.8985L28.3532 30.6714L30.75 28.2524Z" fill="black"/>
</svg>
